<svg xmlns="http://www.w3.org/2000/svg" width="987.01123046875" height="567.3036499023438" viewBox="-501.1493225097656 -247.59483337402344 987.01123046875 567.3036499023438"><title>Neo4j Graph Visualization</title><desc>Created using Neo4j (http://www.neo4j.com/)</desc><g class="layer relationships"><g class="relationship" transform="translate(-113.31958474362426 209.0883413112299) rotate(534.330659520459)"><path class="outline" fill="#A5ABB6" stroke="none" d="M 32.5 0.5 L 131.05745576295723 0.5 L 131.05745576295723 -0.5 L 32.5 -0.5 Z M 171.05745576295723 0.5 L 269.61491152591447 0.5 L 269.61491152591447 3.5 L 276.61491152591447 0 L 269.61491152591447 -3.5 L 269.61491152591447 -0.5 L 171.05745576295723 -0.5 Z"/><text text-anchor="middle" pointer-events="none" font-size="8px" fill="#000000" x="151.05745576295723" y="3" transform="rotate(180 151.05745576295723 0)" font-family="sans-serif">node_type</text></g><g class="relationship" transform="translate(-113.31958474362426 209.0883413112299) rotate(258.9789733446786)"><path class="outline" fill="#A5ABB6" stroke="none" d="M 32.5 0.5 L 179.74949296390133 0.5 L 179.74949296390133 -0.5 L 32.5 -0.5 Z M 219.74949296390133 0.5 L 366.99898592780266 0.5 L 366.99898592780266 3.5 L 373.99898592780266 0 L 366.99898592780266 -3.5 L 366.99898592780266 -0.5 L 219.74949296390133 -0.5 Z"/><text text-anchor="middle" pointer-events="none" font-size="8px" fill="#000000" x="199.74949296390133" y="3" transform="rotate(180 199.74949296390133 0)" font-family="sans-serif">node_type</text></g><g class="relationship" transform="translate(-113.31958474362426 209.0883413112299) rotate(284.7276303598895)"><path class="outline" fill="#A5ABB6" stroke="none" d="M 32.5 0.5 L 91.49756642369879 0.5 L 91.49756642369879 -0.5 L 32.5 -0.5 Z M 131.4975664236988 0.5 L 190.49513284739757 0.5 L 190.49513284739757 3.5 L 197.49513284739757 0 L 190.49513284739757 -3.5 L 190.49513284739757 -0.5 L 131.4975664236988 -0.5 Z"/><text text-anchor="middle" pointer-events="none" font-size="8px" fill="#000000" x="111.49756642369879" y="3" font-family="sans-serif">node_type</text></g><g class="relationship" transform="translate(-464.6493349505723 6.3510261469734814) rotate(441.19136220993784)"><path class="outline" fill="#A5ABB6" stroke="none" d="M 32.5 0.5 L 91.15395764152997 0.5 L 91.15395764152997 -0.5 L 32.5 -0.5 Z M 131.15395764152998 0.5 L 189.80791528305994 0.5 L 189.80791528305994 3.5 L 196.80791528305994 0 L 189.80791528305994 -3.5 L 189.80791528305994 -0.5 L 131.15395764152998 -0.5 Z"/><text text-anchor="middle" pointer-events="none" font-size="8px" fill="#000000" x="111.15395764152997" y="3" font-family="sans-serif">node_type</text></g><g class="relationship" transform="translate(-464.6493349505723 6.3510261469734814) rotate(323.19928888846965)"><path class="outline" fill="#A5ABB6" stroke="none" d="M 32.5 0.5 L 142.71237583211533 0.5 L 142.71237583211533 -0.5 L 32.5 -0.5 Z M 182.71237583211533 0.5 L 292.92475166423066 0.5 L 292.92475166423066 3.5 L 299.92475166423066 0 L 292.92475166423066 -3.5 L 292.92475166423066 -0.5 L 182.71237583211533 -0.5 Z"/><text text-anchor="middle" pointer-events="none" font-size="8px" fill="#000000" x="162.71237583211533" y="3" font-family="sans-serif">node_type</text></g><g class="relationship" transform="translate(-464.6493349505723 6.3510261469734814) rotate(356.2541170637387)"><path class="outline" fill="#A5ABB6" stroke="none" d="M 32.5 0.5 L 179.0441230628636 0.5 L 179.0441230628636 -0.5 L 32.5 -0.5 Z M 219.0441230628636 0.5 L 365.5882461257272 0.5 L 365.5882461257272 3.5 L 372.5882461257272 0 L 365.5882461257272 -3.5 L 365.5882461257272 -0.5 L 219.0441230628636 -0.5 Z"/><text text-anchor="middle" pointer-events="none" font-size="8px" fill="#000000" x="199.0441230628636" y="3" font-family="sans-serif">node_type</text></g><g class="relationship" transform="translate(-282.2490024720737 -57.91433466935791) rotate(476.10167821592853)"><path class="outline" fill="#A5ABB6" stroke="none" d="M 32.5 0.5 L 138.82757246174864 0.5 L 138.82757246174864 -0.5 L 32.5 -0.5 Z M 178.82757246174864 0.5 L 285.1551449234973 0.5 L 285.1551449234973 3.5 L 292.1551449234973 0 L 285.1551449234973 -3.5 L 285.1551449234973 -0.5 L 178.82757246174864 -0.5 Z"/><text text-anchor="middle" pointer-events="none" font-size="8px" fill="#000000" x="158.82757246174864" y="3" transform="rotate(180 158.82757246174864 0)" font-family="sans-serif">node_type</text></g><g class="relationship" transform="translate(-282.2490024720737 -57.91433466935791) rotate(302.7923128459954)"><path class="outline" fill="#A5ABB6" stroke="none" d="M 32.5 0.5 L 55.639872922612 0.5 L 55.639872922612 -0.5 L 32.5 -0.5 Z M 95.639872922612 0.5 L 118.779745845224 0.5 L 118.779745845224 3.5 L 125.779745845224 0 L 118.779745845224 -3.5 L 118.779745845224 -0.5 L 95.639872922612 -0.5 Z"/><text text-anchor="middle" pointer-events="none" font-size="8px" fill="#000000" x="75.639872922612" y="3" font-family="sans-serif">node_type</text></g><g class="relationship" transform="translate(-282.2490024720737 -57.91433466935791) rotate(369.2415905546783)"><path class="outline" fill="#A5ABB6" stroke="none" d="M 32.5 0.5 L 88.91101013659406 0.5 L 88.91101013659406 -0.5 L 32.5 -0.5 Z M 128.91101013659406 0.5 L 185.32202027318812 0.5 L 185.32202027318812 3.5 L 192.32202027318812 0 L 185.32202027318812 -3.5 L 185.32202027318812 -0.5 L 128.91101013659406 -0.5 Z"/><text text-anchor="middle" pointer-events="none" font-size="8px" fill="#000000" x="108.91101013659406" y="3" font-family="sans-serif">node_type</text></g><g class="relationship" transform="translate(7.288819292012761 -211.0948121246438) rotate(493.9805623317791)"><path class="outline" fill="#A5ABB6" stroke="none" d="M 32.5 0.5 L 286.4493444387581 0.5 L 286.4493444387581 -0.5 L 32.5 -0.5 Z M 326.4493444387581 0.5 L 580.3986888775162 0.5 L 580.3986888775162 3.5 L 587.3986888775162 0 L 580.3986888775162 -3.5 L 580.3986888775162 -0.5 L 326.4493444387581 -0.5 Z"/><text text-anchor="middle" pointer-events="none" font-size="8px" fill="#000000" x="306.4493444387581" y="3" transform="rotate(180 306.4493444387581 0)" font-family="sans-serif">node_type</text></g><g class="relationship" transform="translate(7.288819292012761 -211.0948121246438) rotate(536.0423975692667)"><path class="outline" fill="#A5ABB6" stroke="none" d="M 32.5 0.5 L 72.86486891159602 0.5 L 72.86486891159602 -0.5 L 32.5 -0.5 Z M 112.86486891159602 0.5 L 153.22973782319204 0.5 L 153.22973782319204 3.5 L 160.22973782319204 0 L 153.22973782319204 -3.5 L 153.22973782319204 -0.5 L 112.86486891159602 -0.5 Z"/><text text-anchor="middle" pointer-events="none" font-size="8px" fill="#000000" x="92.86486891159602" y="3" transform="rotate(180 92.86486891159602 0)" font-family="sans-serif">node_type</text></g><g class="relationship" transform="translate(7.288819292012761 -211.0948121246438) rotate(467.5464467033415)"><path class="outline" fill="#A5ABB6" stroke="none" d="M 32.5 0.5 L 72.6431723040032 0.5 L 72.6431723040032 -0.5 L 32.5 -0.5 Z M 112.6431723040032 0.5 L 152.7863446080064 0.5 L 152.7863446080064 3.5 L 159.7863446080064 0 L 152.7863446080064 -3.5 L 152.7863446080064 -0.5 L 112.6431723040032 -0.5 Z"/><text text-anchor="middle" pointer-events="none" font-size="8px" fill="#000000" x="92.6431723040032" y="3" transform="rotate(180 92.6431723040032 0)" font-family="sans-serif">node_type</text></g><g class="relationship" transform="translate(-310.5022383539623 -197.11411814964762) rotate(465.08075858224106)"><path class="outline" fill="#A5ABB6" stroke="none" d="M 32.5 0.5 L 199.29208712985633 0.5 L 199.29208712985633 -0.5 L 32.5 -0.5 Z M 239.29208712985633 0.5 L 406.08417425971265 0.5 L 406.08417425971265 3.5 L 413.08417425971265 0 L 406.08417425971265 -3.5 L 406.08417425971265 -0.5 L 239.29208712985633 -0.5 Z"/><text text-anchor="middle" pointer-events="none" font-size="8px" fill="#000000" x="219.29208712985633" y="3" transform="rotate(180 219.29208712985633 0)" font-family="sans-serif">node_type</text></g><g class="relationship" transform="translate(-310.5022383539623 -197.11411814964762) rotate(359.92176271832454)"><path class="outline" fill="#A5ABB6" stroke="none" d="M 32.5 0.5 L 33.76944931796576 0.5 L 33.76944931796576 -0.5 L 32.5 -0.5 Z M 69.76944931796575 0.5 L 71.03889863593152 0.5 L 71.03889863593152 3.5 L 78.03889863593152 0 L 71.03889863593152 -3.5 L 71.03889863593152 -0.5 L 69.76944931796575 -0.5 Z"/><text text-anchor="middle" pointer-events="none" font-size="8px" fill="#000000" x="51.76944931796576" y="3" font-family="sans-serif">node_t…</text></g><g class="relationship" transform="translate(-310.5022383539623 -197.11411814964762) rotate(394.42352211014344)"><path class="outline" fill="#A5ABB6" stroke="none" d="M 32.5 0.5 L 128.86921716244683 0.5 L 128.86921716244683 -0.5 L 32.5 -0.5 Z M 168.86921716244683 0.5 L 265.23843432489366 0.5 L 265.23843432489366 3.5 L 272.23843432489366 0 L 265.23843432489366 -3.5 L 265.23843432489366 -0.5 L 168.86921716244683 -0.5 Z"/><text text-anchor="middle" pointer-events="none" font-size="8px" fill="#000000" x="148.86921716244683" y="3" font-family="sans-serif">node_type</text></g><g class="relationship" transform="translate(361.74098657942193 66.79505719783077) rotate(410.9090238562261)"><path class="outline" fill="#A5ABB6" stroke="none" d="M 32.5 0.5 L 36.28221634825364 0.5 L 36.28221634825364 -0.5 L 32.5 -0.5 Z M 76.28221634825364 0.5 L 80.06443269650728 0.5 L 80.06443269650728 3.5 L 87.06443269650728 0 L 80.06443269650728 -3.5 L 80.06443269650728 -0.5 L 76.28221634825364 -0.5 Z"/><text text-anchor="middle" pointer-events="none" font-size="8px" fill="#000000" x="56.28221634825364" y="3" font-family="sans-serif">node_type</text></g><g class="relationship" transform="translate(361.74098657942193 66.79505719783077) rotate(499.58215993503154)"><path class="outline" fill="#A5ABB6" stroke="none" d="M 32.5 0.5 L 43.46379640517473 0.5 L 43.46379640517473 -0.5 L 32.5 -0.5 Z M 83.46379640517473 0.5 L 94.42759281034947 0.5 L 94.42759281034947 3.5 L 101.42759281034947 0 L 94.42759281034947 -3.5 L 94.42759281034947 -0.5 L 83.46379640517473 -0.5 Z"/><text text-anchor="middle" pointer-events="none" font-size="8px" fill="#000000" x="63.46379640517473" y="3" transform="rotate(180 63.46379640517473 0)" font-family="sans-serif">node_type</text></g><g class="relationship" transform="translate(361.74098657942193 66.79505719783077) rotate(278.55015842652904)"><path class="outline" fill="#A5ABB6" stroke="none" d="M 32.5 0.5 L 33.33682736081557 0.5 L 33.33682736081557 -0.5 L 32.5 -0.5 Z M 73.33682736081556 0.5 L 74.17365472163114 0.5 L 74.17365472163114 3.5 L 81.17365472163114 0 L 74.17365472163114 -3.5 L 74.17365472163114 -0.5 L 73.33682736081556 -0.5 Z"/><text text-anchor="middle" pointer-events="none" font-size="8px" fill="#000000" x="53.33682736081557" y="3" font-family="sans-serif">node_type</text></g></g><g class="layer nodes"><g class="node" transform="translate(87.02736981801476,27.483839609336087)"><circle class="outline" cx="0" cy="0" r="32.5" fill="#68BDF6" stroke="#5CA8DB" stroke-width="2px"/><text text-anchor="middle" pointer-events="none" font-family="sans-serif" dy="2.03125" font-size="32.5" fill="#FFFFFF"/><text text-anchor="middle" pointer-events="none" y="5" font-size="10px" fill="#FFFFFF" font-family="sans-serif"> graph paper</text></g><g class="node" transform="translate(155.16715242376242,-112.32180265466448)"><circle class="outline" cx="0" cy="0" r="32.5" fill="#68BDF6" stroke="#5CA8DB" stroke-width="2px"/><text text-anchor="middle" pointer-events="none" font-family="sans-serif" dy="2.03125" font-size="32.5" fill="#FFFFFF"/><text text-anchor="middle" pointer-events="none" y="5" font-size="10px" fill="#FFFFFF" font-family="sans-serif"> lined paper</text></g><g class="node" transform="translate(182.02328673943106,-13.225790803004884)"><circle class="outline" cx="0" cy="0" r="32.5" fill="#68BDF6" stroke="#5CA8DB" stroke-width="2px"/><text text-anchor="middle" pointer-events="none" font-family="sans-serif" dy="2.03125" font-size="32.5" fill="#FFFFFF"/><text text-anchor="middle" pointer-events="none" font-family="sans-serif" dy="2.03125" font-size="32.5" fill="#FFFFFF"/><text text-anchor="middle" pointer-events="none" y="0" font-size="10px" fill="#FFFFFF" font-family="sans-serif"> construction</text><text text-anchor="middle" pointer-events="none" y="10" font-size="10px" fill="#FFFFFF" font-family="sans-serif"> paper</text></g><g class="node" transform="translate(109.1911463283028,170.46944113464917)"><circle class="outline" cx="0" cy="0" r="32.5" fill="#68BDF6" stroke="#5CA8DB" stroke-width="2px"/><text text-anchor="middle" pointer-events="none" font-family="sans-serif" dy="2.03125" font-size="32.5" fill="#FFFFFF"/><text text-anchor="middle" pointer-events="none" y="5" font-size="10px" fill="#FFFFFF" font-family="sans-serif"> money paper</text></g><g class="node" transform="translate(-113.31958474362426,209.0883413112299)"><circle class="outline" cx="0" cy="0" r="32.5" fill="#DE9BF9" stroke="#BF85D6" stroke-width="2px"/><text text-anchor="middle" pointer-events="none" font-family="sans-serif" dy="2.03125" font-size="32.5" fill="#FFFFFF"/><text text-anchor="middle" pointer-events="none" font-family="sans-serif" dy="2.03125" font-size="32.5" fill="#FFFFFF"/><text text-anchor="middle" pointer-events="none" y="0" font-size="10px" fill="#FFFFFF" font-family="sans-serif"> Zeppelin LZ</text><text text-anchor="middle" pointer-events="none" y="10" font-size="10px" fill="#FFFFFF" font-family="sans-serif"> 4</text></g><g class="node" transform="translate(-464.6493349505723,6.3510261469734814)"><circle class="outline" cx="0" cy="0" r="32.5" fill="#DE9BF9" stroke="#BF85D6" stroke-width="2px"/><text text-anchor="middle" pointer-events="none" font-family="sans-serif" dy="2.03125" font-size="32.5" fill="#FFFFFF"/><text text-anchor="middle" pointer-events="none" font-family="sans-serif" dy="2.03125" font-size="32.5" fill="#FFFFFF"/><text text-anchor="middle" pointer-events="none" y="0" font-size="10px" fill="#FFFFFF" font-family="sans-serif"> LZ 130 Graf</text><text text-anchor="middle" pointer-events="none" y="10" font-size="10px" fill="#FFFFFF" font-family="sans-serif"> Zeppelin II</text></g><g class="node" transform="translate(-282.2490024720737,-57.91433466935791)"><circle class="outline" cx="0" cy="0" r="32.5" fill="#DE9BF9" stroke="#BF85D6" stroke-width="2px"/><text text-anchor="middle" pointer-events="none" font-family="sans-serif" dy="2.03125" font-size="32.5" fill="#FFFFFF"/><text text-anchor="middle" pointer-events="none" font-family="sans-serif" dy="2.03125" font-size="32.5" fill="#FFFFFF"/><text text-anchor="middle" pointer-events="none" y="0" font-size="10px" fill="#FFFFFF" font-family="sans-serif"> LZ 127 Graf</text><text text-anchor="middle" pointer-events="none" y="10" font-size="10px" fill="#FFFFFF" font-family="sans-serif"> Zeppelin</text></g><g class="node" transform="translate(7.288819292012761,-211.0948121246438)"><circle class="outline" cx="0" cy="0" r="32.5" fill="#DE9BF9" stroke="#BF85D6" stroke-width="2px"/><text text-anchor="middle" pointer-events="none" font-family="sans-serif" dy="2.03125" font-size="32.5" fill="#FFFFFF"/><text text-anchor="middle" pointer-events="none" y="5" font-size="10px" fill="#FFFFFF" font-family="sans-serif"> Hindenberg</text></g><g class="node" transform="translate(-310.5022383539623,-197.11411814964762)"><circle class="outline" cx="0" cy="0" r="32.5" fill="#DE9BF9" stroke="#BF85D6" stroke-width="2px"/><text text-anchor="middle" pointer-events="none" font-family="sans-serif" dy="2.03125" font-size="32.5" fill="#FFFFFF"/><text text-anchor="middle" pointer-events="none" y="5" font-size="10px" fill="#FFFFFF" font-family="sans-serif"> LZ 85</text></g><g class="node" transform="translate(361.74098657942193,66.79505719783077)"><circle class="outline" cx="0" cy="0" r="32.5" fill="#DE9BF9" stroke="#BF85D6" stroke-width="2px"/><text text-anchor="middle" pointer-events="none" font-family="sans-serif" dy="2.03125" font-size="32.5" fill="#FFFFFF"/><text text-anchor="middle" pointer-events="none" y="5" font-size="10px" fill="#FFFFFF" font-family="sans-serif"> airfish</text></g><g class="node" transform="translate(-52.94253398224714,-20.603952568127568)"><circle class="outline" cx="0" cy="0" r="40" fill="#FFD86E" stroke="#EDBA39" stroke-width="2px"/><text text-anchor="middle" pointer-events="none" font-family="sans-serif" dy="2.5" font-size="40" fill="#604A0E"/><text text-anchor="middle" pointer-events="none" y="5" font-size="10px" fill="#604A0E" font-family="sans-serif"> Steffi Graf</text></g><g class="node" transform="translate(379.7565000803692,-53.03188414631882)"><circle class="outline" cx="0" cy="0" r="40" fill="#FFD86E" stroke="#EDBA39" stroke-width="2px"/><text text-anchor="middle" pointer-events="none" font-family="sans-serif" dy="2.5" font-size="40" fill="#604A0E"/><text text-anchor="middle" pointer-events="none" y="5" font-size="10px" fill="#604A0E" font-family="sans-serif"> Roger Federer</text></g><g class="node" transform="translate(254.06700274564002,158.49062532133655)"><circle class="outline" cx="0" cy="0" r="40" fill="#FFD86E" stroke="#EDBA39" stroke-width="2px"/><text text-anchor="middle" pointer-events="none" font-family="sans-serif" dy="2.5" font-size="40" fill="#604A0E"/><text text-anchor="middle" pointer-events="none" y="5" font-size="10px" fill="#604A0E" font-family="sans-serif"> Martina Hingis</text></g><g class="node" transform="translate(-428.38579800018874,240.36586462641063)"><circle class="outline" cx="0" cy="0" r="40" fill="#FF756E" stroke="#E06760" stroke-width="2px"/><text text-anchor="middle" pointer-events="none" font-family="sans-serif" dy="2.5" font-size="40" fill="#FFFFFF"/><text text-anchor="middle" pointer-events="none" y="5" font-size="10px" fill="#FFFFFF" font-family="sans-serif"> set theory</text></g><g class="node" transform="translate(-192.46344976480736,-197.27529999881364)"><circle class="outline" cx="0" cy="0" r="40" fill="#FF756E" stroke="#E06760" stroke-width="2px"/><text text-anchor="middle" pointer-events="none" font-family="sans-serif" dy="2.5" font-size="40" fill="#FFFFFF"/><text text-anchor="middle" pointer-events="none" y="5" font-size="10px" fill="#FFFFFF" font-family="sans-serif"> logic</text></g><g class="node" transform="translate(441.86191892276725,165.41557360754297)"><circle class="outline" cx="0" cy="0" r="40" fill="#FF756E" stroke="#E06760" stroke-width="2px"/><text text-anchor="middle" pointer-events="none" font-family="sans-serif" dy="2.5" font-size="40" fill="#FFFFFF"/><text text-anchor="middle" pointer-events="none" y="5" font-size="10px" fill="#FFFFFF" font-family="sans-serif"> graph theory</text></g><g class="node" transform="translate(-18.443767308653605,275.7088303759923)"><circle class="outline" cx="0" cy="0" r="40" fill="#FF756E" stroke="#E06760" stroke-width="2px"/><text text-anchor="middle" pointer-events="none" font-family="sans-serif" dy="2.5" font-size="40" fill="#FFFFFF"/><text text-anchor="middle" pointer-events="none" y="5" font-size="10px" fill="#FFFFFF" font-family="sans-serif"> combinatorics</text></g></g></svg>